G04 #@! TF.GenerationSoftware,KiCad,Pcbnew,8.0.5*
G04 #@! TF.CreationDate,2024-11-20T16:26:23+01:00*
G04 #@! TF.ProjectId,p2,70322e6b-6963-4616-945f-706362585858,rev?*
G04 #@! TF.SameCoordinates,Original*
G04 #@! TF.FileFunction,Legend,Bot*
G04 #@! TF.FilePolarity,Positive*
%FSLAX46Y46*%
G04 Gerber Fmt 4.6, Leading zero omitted, Abs format (unit mm)*
G04 Created by KiCad (PCBNEW 8.0.5) date 2024-11-20 16:26:23*
%MOMM*%
%LPD*%
G01*
G04 APERTURE LIST*
%ADD10C,0.150000*%
%ADD11C,0.127000*%
G04 APERTURE END LIST*
D10*
X167917009Y-41211285D02*
X167964628Y-41354142D01*
X167964628Y-41354142D02*
X168012247Y-41401761D01*
X168012247Y-41401761D02*
X168107485Y-41449380D01*
X168107485Y-41449380D02*
X168250342Y-41449380D01*
X168250342Y-41449380D02*
X168345580Y-41401761D01*
X168345580Y-41401761D02*
X168393200Y-41354142D01*
X168393200Y-41354142D02*
X168440819Y-41258904D01*
X168440819Y-41258904D02*
X168440819Y-40877952D01*
X168440819Y-40877952D02*
X167440819Y-40877952D01*
X167440819Y-40877952D02*
X167440819Y-41211285D01*
X167440819Y-41211285D02*
X167488438Y-41306523D01*
X167488438Y-41306523D02*
X167536057Y-41354142D01*
X167536057Y-41354142D02*
X167631295Y-41401761D01*
X167631295Y-41401761D02*
X167726533Y-41401761D01*
X167726533Y-41401761D02*
X167821771Y-41354142D01*
X167821771Y-41354142D02*
X167869390Y-41306523D01*
X167869390Y-41306523D02*
X167917009Y-41211285D01*
X167917009Y-41211285D02*
X167917009Y-40877952D01*
X167440819Y-41735095D02*
X167440819Y-42306523D01*
X168440819Y-42020809D02*
X167440819Y-42020809D01*
X167536057Y-42592238D02*
X167488438Y-42639857D01*
X167488438Y-42639857D02*
X167440819Y-42735095D01*
X167440819Y-42735095D02*
X167440819Y-42973190D01*
X167440819Y-42973190D02*
X167488438Y-43068428D01*
X167488438Y-43068428D02*
X167536057Y-43116047D01*
X167536057Y-43116047D02*
X167631295Y-43163666D01*
X167631295Y-43163666D02*
X167726533Y-43163666D01*
X167726533Y-43163666D02*
X167869390Y-43116047D01*
X167869390Y-43116047D02*
X168440819Y-42544619D01*
X168440819Y-42544619D02*
X168440819Y-43163666D01*
X176179533Y-91338667D02*
X176179533Y-92405334D01*
X191673533Y-91338667D02*
X191673533Y-92405334D01*
X192206866Y-91872000D02*
X191140200Y-91872000D01*
D11*
G04 #@! TO.C,BT2*
X198846000Y-92667000D02*
X168876000Y-92667000D01*
X198846000Y-38317000D02*
X198846000Y-92667000D01*
X168876000Y-92667000D02*
X168876000Y-38317000D01*
X168876000Y-38317000D02*
X198846000Y-38317000D01*
G04 #@! TD*
M02*
