G04 #@! TF.GenerationSoftware,KiCad,Pcbnew,8.0.5*
G04 #@! TF.CreationDate,2024-11-20T16:26:23+01:00*
G04 #@! TF.ProjectId,p2,70322e6b-6963-4616-945f-706362585858,rev?*
G04 #@! TF.SameCoordinates,Original*
G04 #@! TF.FileFunction,Copper,L1,Top*
G04 #@! TF.FilePolarity,Positive*
%FSLAX46Y46*%
G04 Gerber Fmt 4.6, Leading zero omitted, Abs format (unit mm)*
G04 Created by KiCad (PCBNEW 8.0.5) date 2024-11-20 16:26:23*
%MOMM*%
%LPD*%
G01*
G04 APERTURE LIST*
G04 Aperture macros list*
%AMRoundRect*
0 Rectangle with rounded corners*
0 $1 Rounding radius*
0 $2 $3 $4 $5 $6 $7 $8 $9 X,Y pos of 4 corners*
0 Add a 4 corners polygon primitive as box body*
4,1,4,$2,$3,$4,$5,$6,$7,$8,$9,$2,$3,0*
0 Add four circle primitives for the rounded corners*
1,1,$1+$1,$2,$3*
1,1,$1+$1,$4,$5*
1,1,$1+$1,$6,$7*
1,1,$1+$1,$8,$9*
0 Add four rect primitives between the rounded corners*
20,1,$1+$1,$2,$3,$4,$5,0*
20,1,$1+$1,$4,$5,$6,$7,0*
20,1,$1+$1,$6,$7,$8,$9,0*
20,1,$1+$1,$8,$9,$2,$3,0*%
G04 Aperture macros list end*
G04 #@! TA.AperFunction,ComponentPad*
%ADD10C,1.600000*%
G04 #@! TD*
G04 #@! TA.AperFunction,ComponentPad*
%ADD11O,1.600000X1.600000*%
G04 #@! TD*
G04 #@! TA.AperFunction,ComponentPad*
%ADD12R,1.700000X1.700000*%
G04 #@! TD*
G04 #@! TA.AperFunction,ComponentPad*
%ADD13O,1.700000X1.700000*%
G04 #@! TD*
G04 #@! TA.AperFunction,ComponentPad*
%ADD14C,10.160000*%
G04 #@! TD*
G04 #@! TA.AperFunction,ComponentPad*
%ADD15R,1.800000X1.800000*%
G04 #@! TD*
G04 #@! TA.AperFunction,ComponentPad*
%ADD16C,1.800000*%
G04 #@! TD*
G04 #@! TA.AperFunction,ComponentPad*
%ADD17R,1.500000X1.500000*%
G04 #@! TD*
G04 #@! TA.AperFunction,ComponentPad*
%ADD18C,1.365000*%
G04 #@! TD*
G04 #@! TA.AperFunction,ComponentPad*
%ADD19R,2.600000X2.600000*%
G04 #@! TD*
G04 #@! TA.AperFunction,ComponentPad*
%ADD20C,2.600000*%
G04 #@! TD*
G04 #@! TA.AperFunction,ComponentPad*
%ADD21R,2.000000X2.000000*%
G04 #@! TD*
G04 #@! TA.AperFunction,ComponentPad*
%ADD22C,2.000000*%
G04 #@! TD*
G04 #@! TA.AperFunction,ComponentPad*
%ADD23R,3.500000X3.500000*%
G04 #@! TD*
G04 #@! TA.AperFunction,ComponentPad*
%ADD24RoundRect,0.750000X-0.750000X-1.000000X0.750000X-1.000000X0.750000X1.000000X-0.750000X1.000000X0*%
G04 #@! TD*
G04 #@! TA.AperFunction,ComponentPad*
%ADD25RoundRect,0.875000X-0.875000X-0.875000X0.875000X-0.875000X0.875000X0.875000X-0.875000X0.875000X0*%
G04 #@! TD*
G04 #@! TA.AperFunction,ComponentPad*
%ADD26R,1.350000X1.350000*%
G04 #@! TD*
G04 #@! TA.AperFunction,ComponentPad*
%ADD27C,1.350000*%
G04 #@! TD*
G04 #@! TA.AperFunction,ComponentPad*
%ADD28R,1.600000X1.600000*%
G04 #@! TD*
G04 #@! TA.AperFunction,ComponentPad*
%ADD29R,2.250000X2.250000*%
G04 #@! TD*
G04 #@! TA.AperFunction,ComponentPad*
%ADD30C,2.250000*%
G04 #@! TD*
G04 #@! TA.AperFunction,ComponentPad*
%ADD31C,2.700000*%
G04 #@! TD*
G04 #@! TA.AperFunction,Conductor*
%ADD32C,0.250000*%
G04 #@! TD*
G04 APERTURE END LIST*
D10*
G04 #@! TO.P,R19,1*
G04 #@! TO.N,/\u002A10*
X176073000Y-80823000D03*
D11*
G04 #@! TO.P,R19,2*
G04 #@! TO.N,Net-(D6-A)*
X176073000Y-70663000D03*
G04 #@! TD*
D10*
G04 #@! TO.P,R18,1*
G04 #@! TO.N,/\u002A9*
X173406000Y-49454000D03*
D11*
G04 #@! TO.P,R18,2*
G04 #@! TO.N,Net-(D4-A)*
X173406000Y-39294000D03*
G04 #@! TD*
D10*
G04 #@! TO.P,R17,1*
G04 #@! TO.N,/8*
X188519000Y-86792000D03*
D11*
G04 #@! TO.P,R17,2*
G04 #@! TO.N,Net-(D5-A)*
X188519000Y-76632000D03*
G04 #@! TD*
G04 #@! TO.P,R16,2*
G04 #@! TO.N,Net-(D3-A)*
X189027000Y-54407000D03*
D10*
G04 #@! TO.P,R16,1*
G04 #@! TO.N,/7*
X189027000Y-44247000D03*
G04 #@! TD*
D12*
G04 #@! TO.P,J1,1,Pin_1*
G04 #@! TO.N,unconnected-(J1-Pin_1-Pad1)*
X127940000Y-97460000D03*
D13*
G04 #@! TO.P,J1,2,Pin_2*
G04 #@! TO.N,/IOREF*
X130480000Y-97460000D03*
G04 #@! TO.P,J1,3,Pin_3*
G04 #@! TO.N,/~{RESET}*
X133020000Y-97460000D03*
G04 #@! TO.P,J1,4,Pin_4*
G04 #@! TO.N,+3V3*
X135560000Y-97460000D03*
G04 #@! TO.P,J1,5,Pin_5*
G04 #@! TO.N,+5V*
X138100000Y-97460000D03*
G04 #@! TO.P,J1,6,Pin_6*
G04 #@! TO.N,GND*
X140640000Y-97460000D03*
G04 #@! TO.P,J1,7,Pin_7*
X143180000Y-97460000D03*
G04 #@! TO.P,J1,8,Pin_8*
G04 #@! TO.N,VCC*
X145720000Y-97460000D03*
G04 #@! TD*
D12*
G04 #@! TO.P,J3,1,Pin_1*
G04 #@! TO.N,/A0*
X150800000Y-97460000D03*
D13*
G04 #@! TO.P,J3,2,Pin_2*
G04 #@! TO.N,/A1*
X153340000Y-97460000D03*
G04 #@! TO.P,J3,3,Pin_3*
G04 #@! TO.N,/A2*
X155880000Y-97460000D03*
G04 #@! TO.P,J3,4,Pin_4*
G04 #@! TO.N,/A3*
X158420000Y-97460000D03*
G04 #@! TO.P,J3,5,Pin_5*
G04 #@! TO.N,/A4*
X160960000Y-97460000D03*
G04 #@! TO.P,J3,6,Pin_6*
G04 #@! TO.N,/A5*
X163500000Y-97460000D03*
G04 #@! TD*
D12*
G04 #@! TO.P,J2,1,Pin_1*
G04 #@! TO.N,/A5*
X118796000Y-49200000D03*
D13*
G04 #@! TO.P,J2,2,Pin_2*
G04 #@! TO.N,/A4*
X121336000Y-49200000D03*
G04 #@! TO.P,J2,3,Pin_3*
G04 #@! TO.N,/AREF*
X123876000Y-49200000D03*
G04 #@! TO.P,J2,4,Pin_4*
G04 #@! TO.N,GND*
X126416000Y-49200000D03*
G04 #@! TO.P,J2,5,Pin_5*
G04 #@! TO.N,/13*
X128956000Y-49200000D03*
G04 #@! TO.P,J2,6,Pin_6*
G04 #@! TO.N,/12*
X131496000Y-49200000D03*
G04 #@! TO.P,J2,7,Pin_7*
G04 #@! TO.N,/\u002A11*
X134036000Y-49200000D03*
G04 #@! TO.P,J2,8,Pin_8*
G04 #@! TO.N,/\u002A10*
X136576000Y-49200000D03*
G04 #@! TO.P,J2,9,Pin_9*
G04 #@! TO.N,/\u002A9*
X139116000Y-49200000D03*
G04 #@! TO.P,J2,10,Pin_10*
G04 #@! TO.N,/8*
X141656000Y-49200000D03*
G04 #@! TD*
D12*
G04 #@! TO.P,J4,1,Pin_1*
G04 #@! TO.N,/7*
X145720000Y-49200000D03*
D13*
G04 #@! TO.P,J4,2,Pin_2*
G04 #@! TO.N,/\u002A6*
X148260000Y-49200000D03*
G04 #@! TO.P,J4,3,Pin_3*
G04 #@! TO.N,/\u002A5*
X150800000Y-49200000D03*
G04 #@! TO.P,J4,4,Pin_4*
G04 #@! TO.N,/4*
X153340000Y-49200000D03*
G04 #@! TO.P,J4,5,Pin_5*
G04 #@! TO.N,/\u002A3*
X155880000Y-49200000D03*
G04 #@! TO.P,J4,6,Pin_6*
G04 #@! TO.N,/2*
X158420000Y-49200000D03*
G04 #@! TO.P,J4,7,Pin_7*
G04 #@! TO.N,/1*
X160960000Y-49200000D03*
G04 #@! TO.P,J4,8,Pin_8*
G04 #@! TO.N,/0*
X163500000Y-49200000D03*
G04 #@! TD*
D10*
G04 #@! TO.P,R1,1*
G04 #@! TO.N,/Banana High*
X149149000Y-40183000D03*
D11*
G04 #@! TO.P,R1,2*
G04 #@! TO.N,/A1*
X138989000Y-40183000D03*
G04 #@! TD*
D10*
G04 #@! TO.P,R12,1*
G04 #@! TO.N,Net-(IC1-B)*
X140640000Y-53264000D03*
D11*
G04 #@! TO.P,R12,2*
G04 #@! TO.N,/seg7*
X130480000Y-53264000D03*
G04 #@! TD*
D14*
G04 #@! TO.P,Banana_GND1,1,Pin_1*
G04 #@! TO.N,GND*
X205156000Y-70028000D03*
G04 #@! TD*
D10*
G04 #@! TO.P,R9,1*
G04 #@! TO.N,Net-(IC1-F)*
X140640000Y-62789000D03*
D11*
G04 #@! TO.P,R9,2*
G04 #@! TO.N,/seg10*
X130480000Y-62789000D03*
G04 #@! TD*
D15*
G04 #@! TO.P,D2,1,K*
G04 #@! TO.N,/led_switch*
X202611000Y-97206000D03*
D16*
G04 #@! TO.P,D2,2,A*
G04 #@! TO.N,Net-(D2-A)*
X205151000Y-97206000D03*
G04 #@! TD*
D17*
G04 #@! TO.P,SW2,1,A*
G04 #@! TO.N,GND*
X195250000Y-98349000D03*
D10*
G04 #@! TO.P,SW2,2,B*
G04 #@! TO.N,/led_switch*
X192710000Y-98349000D03*
G04 #@! TO.P,SW2,3,C*
G04 #@! TO.N,unconnected-(SW2-C-Pad3)*
X197790000Y-98349000D03*
G04 #@! TD*
D15*
G04 #@! TO.P,D6,1,K*
G04 #@! TO.N,/led_switch*
X182809000Y-82093000D03*
D16*
G04 #@! TO.P,D6,2,A*
G04 #@! TO.N,Net-(D6-A)*
X180269000Y-82093000D03*
G04 #@! TD*
D10*
G04 #@! TO.P,R13,1*
G04 #@! TO.N,Net-(IC1-C)*
X140640000Y-59614000D03*
D11*
G04 #@! TO.P,R13,2*
G04 #@! TO.N,/seg4*
X130480000Y-59614000D03*
G04 #@! TD*
D18*
G04 #@! TO.P,RN1,1,1*
G04 #@! TO.N,GND*
X153086000Y-44501000D03*
G04 #@! TO.P,RN1,2,2*
G04 #@! TO.N,/7*
X150546000Y-44501000D03*
G04 #@! TO.P,RN1,3,3*
G04 #@! TO.N,/8*
X148006000Y-44501000D03*
G04 #@! TO.P,RN1,4,4*
G04 #@! TO.N,/\u002A9*
X145466000Y-44501000D03*
G04 #@! TO.P,RN1,5,5*
G04 #@! TO.N,/\u002A10*
X142926000Y-44501000D03*
G04 #@! TO.P,RN1,6,6*
G04 #@! TO.N,unconnected-(RN1-Pad6)*
X140386000Y-44501000D03*
G04 #@! TD*
D10*
G04 #@! TO.P,R11,1*
G04 #@! TO.N,Net-(IC1-A)*
X140640000Y-69139000D03*
D11*
G04 #@! TO.P,R11,2*
G04 #@! TO.N,/seg11*
X130480000Y-69139000D03*
G04 #@! TD*
D10*
G04 #@! TO.P,R15,1*
G04 #@! TO.N,Net-(IC1-E)*
X140640000Y-72314000D03*
D11*
G04 #@! TO.P,R15,2*
G04 #@! TO.N,/seg1*
X130480000Y-72314000D03*
G04 #@! TD*
D10*
G04 #@! TO.P,R2,1*
G04 #@! TO.N,/A1*
X136703000Y-40183000D03*
D11*
G04 #@! TO.P,R2,2*
G04 #@! TO.N,GND*
X126543000Y-40183000D03*
G04 #@! TD*
D15*
G04 #@! TO.P,D3,1,K*
G04 #@! TO.N,/led_switch*
X195504000Y-57328000D03*
D16*
G04 #@! TO.P,D3,2,A*
G04 #@! TO.N,Net-(D3-A)*
X192964000Y-57328000D03*
G04 #@! TD*
D19*
G04 #@! TO.P,J6,1,Pin_1*
G04 #@! TO.N,VCC*
X186484500Y-98169500D03*
D20*
G04 #@! TO.P,J6,2,Pin_2*
G04 #@! TO.N,Net-(J6-Pin_2)*
X181404500Y-98169500D03*
G04 #@! TD*
D10*
G04 #@! TO.P,R8,1*
G04 #@! TO.N,Net-(D1-A)*
X210236000Y-61646000D03*
D11*
G04 #@! TO.P,R8,2*
G04 #@! TO.N,/1*
X200076000Y-61646000D03*
G04 #@! TD*
D21*
G04 #@! TO.P,BZ1,1,+*
G04 #@! TO.N,/A5*
X139624000Y-85649000D03*
D22*
G04 #@! TO.P,BZ1,2,-*
G04 #@! TO.N,GND*
X132024000Y-85649000D03*
G04 #@! TD*
D14*
G04 #@! TO.P,Banana_Low1,1,Pin_1*
G04 #@! TO.N,/Banana Low*
X205029000Y-85903000D03*
G04 #@! TD*
D15*
G04 #@! TO.P,D5,1,K*
G04 #@! TO.N,/led_switch*
X195255000Y-85522000D03*
D16*
G04 #@! TO.P,D5,2,A*
G04 #@! TO.N,Net-(D5-A)*
X192715000Y-85522000D03*
G04 #@! TD*
D14*
G04 #@! TO.P,Banana_High1,1,Pin_1*
G04 #@! TO.N,/Banana High*
X205029000Y-53391000D03*
G04 #@! TD*
D10*
G04 #@! TO.P,R6,1*
G04 #@! TO.N,/A4*
X126543000Y-44374000D03*
D11*
G04 #@! TO.P,R6,2*
G04 #@! TO.N,GND*
X136703000Y-44374000D03*
G04 #@! TD*
D10*
G04 #@! TO.P,R4,1*
G04 #@! TO.N,VCC*
X114097000Y-44374000D03*
D11*
G04 #@! TO.P,R4,2*
G04 #@! TO.N,/A4*
X124257000Y-44374000D03*
G04 #@! TD*
D23*
G04 #@! TO.P,J5,1*
G04 #@! TO.N,VCC*
X125939000Y-90025500D03*
D24*
G04 #@! TO.P,J5,2*
G04 #@! TO.N,GND*
X119939000Y-90025500D03*
D25*
G04 #@! TO.P,J5,3*
G04 #@! TO.N,Net-(J6-Pin_2)*
X122939000Y-94725500D03*
G04 #@! TD*
D10*
G04 #@! TO.P,R7,1*
G04 #@! TO.N,Net-(D2-A)*
X210236000Y-78410000D03*
D11*
G04 #@! TO.P,R7,2*
G04 #@! TO.N,/0*
X200076000Y-78410000D03*
G04 #@! TD*
D15*
G04 #@! TO.P,D1,1,K*
G04 #@! TO.N,/led_switch*
X202108000Y-42596000D03*
D16*
G04 #@! TO.P,D1,2,A*
G04 #@! TO.N,Net-(D1-A)*
X204648000Y-42596000D03*
G04 #@! TD*
D10*
G04 #@! TO.P,R10,1*
G04 #@! TO.N,Net-(IC1-G)*
X140640000Y-56439000D03*
D11*
G04 #@! TO.P,R10,2*
G04 #@! TO.N,/seg5*
X130480000Y-56439000D03*
G04 #@! TD*
D15*
G04 #@! TO.P,D4,1,K*
G04 #@! TO.N,/led_switch*
X179888000Y-56185000D03*
D16*
G04 #@! TO.P,D4,2,A*
G04 #@! TO.N,Net-(D4-A)*
X177348000Y-56185000D03*
G04 #@! TD*
D26*
G04 #@! TO.P,IC1,1,D1*
G04 #@! TO.N,/\u002A3*
X162103000Y-52629000D03*
D27*
G04 #@! TO.P,IC1,2,D2*
G04 #@! TO.N,/4*
X159563000Y-52629000D03*
G04 #@! TO.P,IC1,3,~{LT}*
G04 #@! TO.N,+5V*
X157023000Y-52629000D03*
G04 #@! TO.P,IC1,4,~{BL}*
X154483000Y-52629000D03*
G04 #@! TO.P,IC1,5,~{LE}*
G04 #@! TO.N,GND*
X151943000Y-52629000D03*
G04 #@! TO.P,IC1,6,D3*
G04 #@! TO.N,/\u002A5*
X149403000Y-52629000D03*
G04 #@! TO.P,IC1,7,D0*
G04 #@! TO.N,/2*
X146863000Y-52629000D03*
G04 #@! TO.P,IC1,8,GND*
G04 #@! TO.N,GND*
X144323000Y-52629000D03*
G04 #@! TO.P,IC1,9,E*
G04 #@! TO.N,Net-(IC1-E)*
X144323000Y-60569000D03*
G04 #@! TO.P,IC1,10,D*
G04 #@! TO.N,Net-(IC1-D)*
X146863000Y-60569000D03*
G04 #@! TO.P,IC1,11,C*
G04 #@! TO.N,Net-(IC1-C)*
X149403000Y-60569000D03*
G04 #@! TO.P,IC1,12,B*
G04 #@! TO.N,Net-(IC1-B)*
X151943000Y-60569000D03*
G04 #@! TO.P,IC1,13,A*
G04 #@! TO.N,Net-(IC1-A)*
X154483000Y-60569000D03*
G04 #@! TO.P,IC1,14,G*
G04 #@! TO.N,Net-(IC1-G)*
X157023000Y-60569000D03*
G04 #@! TO.P,IC1,15,F*
G04 #@! TO.N,Net-(IC1-F)*
X159563000Y-60569000D03*
G04 #@! TO.P,IC1,16,VCC*
G04 #@! TO.N,+5V*
X162103000Y-60569000D03*
G04 #@! TD*
D17*
G04 #@! TO.P,SW1,1,A*
G04 #@! TO.N,VCC*
X171755000Y-98222000D03*
D10*
G04 #@! TO.P,SW1,2,B*
G04 #@! TO.N,Net-(SW1-B)*
X174295000Y-98222000D03*
G04 #@! TO.P,SW1,3,C*
G04 #@! TO.N,unconnected-(SW1-C-Pad3)*
X169215000Y-98222000D03*
G04 #@! TD*
G04 #@! TO.P,R3,1*
G04 #@! TO.N,+5V*
X129591000Y-77267000D03*
D11*
G04 #@! TO.P,R3,2*
G04 #@! TO.N,/A2*
X139751000Y-77267000D03*
G04 #@! TD*
D10*
G04 #@! TO.P,R5,1*
G04 #@! TO.N,+5V*
X130226000Y-93650000D03*
D11*
G04 #@! TO.P,R5,2*
G04 #@! TO.N,/A3*
X140386000Y-93650000D03*
G04 #@! TD*
D28*
G04 #@! TO.P,DS1,1,1*
G04 #@! TO.N,/seg1*
X127813000Y-69647000D03*
D10*
G04 #@! TO.P,DS1,2,2*
G04 #@! TO.N,/seg2*
X127813000Y-67107000D03*
G04 #@! TO.P,DS1,3,3*
G04 #@! TO.N,/\u002A6*
X127813000Y-64567000D03*
G04 #@! TO.P,DS1,4,4*
G04 #@! TO.N,/seg4*
X127813000Y-62027000D03*
G04 #@! TO.P,DS1,5,5*
G04 #@! TO.N,/seg5*
X127813000Y-59487000D03*
G04 #@! TO.P,DS1,6,6*
G04 #@! TO.N,unconnected-(DS1-Pad6)*
X127813000Y-56947000D03*
G04 #@! TO.P,DS1,7,7*
G04 #@! TO.N,/seg7*
X120193000Y-56947000D03*
G04 #@! TO.P,DS1,8,8*
G04 #@! TO.N,/13*
X120193000Y-59487000D03*
G04 #@! TO.P,DS1,9,9*
G04 #@! TO.N,/12*
X120193000Y-62027000D03*
G04 #@! TO.P,DS1,10,10*
G04 #@! TO.N,/seg10*
X120193000Y-64567000D03*
G04 #@! TO.P,DS1,11,11*
G04 #@! TO.N,/seg11*
X120193000Y-67107000D03*
G04 #@! TO.P,DS1,12,12*
G04 #@! TO.N,/\u002A11*
X120193000Y-69647000D03*
G04 #@! TD*
G04 #@! TO.P,R14,1*
G04 #@! TO.N,Net-(IC1-D)*
X140640000Y-65964000D03*
D11*
G04 #@! TO.P,R14,2*
G04 #@! TO.N,/seg2*
X130480000Y-65964000D03*
G04 #@! TD*
D29*
G04 #@! TO.P,S1,1*
G04 #@! TO.N,/7*
X152270220Y-89614690D03*
D30*
G04 #@! TO.P,S1,2*
G04 #@! TO.N,/8*
X147294220Y-86741780D03*
G04 #@! TO.P,S1,3*
G04 #@! TO.N,/\u002A9*
X144421310Y-81765780D03*
G04 #@! TO.P,S1,4*
G04 #@! TO.N,/\u002A10*
X144421310Y-76020000D03*
G04 #@! TO.P,S1,5*
G04 #@! TO.N,unconnected-(S1-Pad5)*
X147294220Y-71044000D03*
G04 #@! TO.P,S1,6*
G04 #@! TO.N,unconnected-(S1-Pad6)*
X152270220Y-68171090D03*
G04 #@! TO.P,S1,7*
G04 #@! TO.N,/A0*
X158016000Y-68171090D03*
G04 #@! TO.P,S1,8*
G04 #@! TO.N,unconnected-(S1-Pad8)*
X162992000Y-71044000D03*
G04 #@! TO.P,S1,9*
G04 #@! TO.N,/A2*
X165864910Y-76020000D03*
G04 #@! TO.P,S1,10*
G04 #@! TO.N,/A3*
X165864910Y-81765780D03*
G04 #@! TO.P,S1,11*
G04 #@! TO.N,unconnected-(S1-Pad11)*
X162992000Y-86741780D03*
G04 #@! TO.P,S1,12*
G04 #@! TO.N,unconnected-(S1-Pad12)*
X158016000Y-89614690D03*
G04 #@! TO.P,S1,A*
G04 #@! TO.N,+5V*
X152420750Y-81615250D03*
G04 #@! TO.P,S1,C*
G04 #@! TO.N,/Banana Low*
X157865470Y-76170530D03*
G04 #@! TD*
D31*
G04 #@! TO.P,BT2,-*
G04 #@! TO.N,Net-(J6-Pin_2)*
X177511000Y-90437000D03*
G04 #@! TO.P,BT2,+*
G04 #@! TO.N,Net-(SW1-B)*
X190211000Y-90437000D03*
G04 #@! TD*
D32*
G04 #@! TO.N,/7*
X178613000Y-54661000D02*
X178613000Y-55042000D01*
X189027000Y-44247000D02*
X178613000Y-54661000D01*
X178613000Y-57455000D02*
X178613000Y-55042000D01*
X166996104Y-38595500D02*
X156451500Y-38595500D01*
X176123000Y-56692412D02*
X176123000Y-47722396D01*
X177855412Y-57410000D02*
X176840588Y-57410000D01*
X176123000Y-47722396D02*
X166996104Y-38595500D01*
X178573000Y-56692412D02*
X177855412Y-57410000D01*
X176840588Y-57410000D02*
X176123000Y-56692412D01*
X156451500Y-38595500D02*
X150546000Y-44501000D01*
G04 #@! TO.N,/Banana High*
X151943165Y-37388835D02*
X149149000Y-40183000D01*
X176080239Y-37381211D02*
X151943165Y-37388835D01*
X189019211Y-37381211D02*
X176080239Y-37381211D01*
X205029000Y-53391000D02*
X189019211Y-37381211D01*
G04 #@! TO.N,/\u002A9*
X173406000Y-49581000D02*
X167575630Y-49581000D01*
X167575630Y-49581000D02*
X167188815Y-49194185D01*
X167188815Y-49194185D02*
X164019630Y-46025000D01*
X177920630Y-59926000D02*
X167188815Y-49194185D01*
X140291000Y-50375000D02*
X139116000Y-49200000D01*
X146895000Y-50375000D02*
X140291000Y-50375000D01*
X146895000Y-48903299D02*
X146895000Y-50375000D01*
X149773299Y-46025000D02*
X146895000Y-48903299D01*
X164019630Y-46025000D02*
X149773299Y-46025000D01*
X200643396Y-59926000D02*
X177920630Y-59926000D01*
X201796000Y-61078604D02*
X200643396Y-59926000D01*
X201796000Y-62662000D02*
X201796000Y-61078604D01*
X169596000Y-67869000D02*
X173378000Y-64087000D01*
X161976000Y-67869000D02*
X169596000Y-67869000D01*
X200371000Y-64087000D02*
X201796000Y-62662000D01*
X160273396Y-66165000D02*
X160273396Y-66166396D01*
X173378000Y-64087000D02*
X200371000Y-64087000D01*
X157404000Y-65006000D02*
X159114396Y-65006000D01*
X159114396Y-65006000D02*
X160273396Y-66165000D01*
X160273396Y-66166396D02*
X161976000Y-67869000D01*
G04 #@! TO.N,/A1*
X129101000Y-86491000D02*
X117718000Y-75108000D01*
X129115000Y-95714000D02*
X129101000Y-95700000D01*
X129101000Y-95700000D02*
X129101000Y-86491000D01*
X153340000Y-98662081D02*
X152917081Y-99085000D01*
X152917081Y-99085000D02*
X130443299Y-99085000D01*
X153340000Y-97460000D02*
X153340000Y-98662081D01*
X129115000Y-97756701D02*
X129115000Y-95714000D01*
X130443299Y-99085000D02*
X129115000Y-97756701D01*
X117718000Y-53959604D02*
X117718000Y-75108000D01*
G04 #@! TO.N,/A5*
X117268000Y-50728000D02*
X117716500Y-50279500D01*
X121764000Y-88580218D02*
X117268000Y-84084218D01*
X121764000Y-89887000D02*
X121764000Y-88580218D01*
X126162000Y-94285000D02*
X121764000Y-89887000D01*
X126162000Y-98032000D02*
X126162000Y-94285000D01*
X127665000Y-99535000D02*
X126162000Y-98032000D01*
X158006701Y-99535000D02*
X127665000Y-99535000D01*
X159595000Y-96973299D02*
X159595000Y-97946701D01*
X160283299Y-96285000D02*
X159595000Y-96973299D01*
X162325000Y-96285000D02*
X160283299Y-96285000D01*
X163500000Y-97460000D02*
X162325000Y-96285000D01*
X117268000Y-84084218D02*
X117268000Y-50728000D01*
X117716500Y-50279500D02*
X118796000Y-49200000D01*
G04 #@! TO.N,/12*
X129421000Y-51275000D02*
X131496000Y-49200000D01*
X124003000Y-51275000D02*
X129421000Y-51275000D01*
X119068000Y-56210000D02*
X124003000Y-51275000D01*
X119727009Y-58072000D02*
X119068000Y-57412991D01*
X119068000Y-57412991D02*
X119068000Y-56210000D01*
X120754181Y-58072000D02*
X119727009Y-58072000D01*
X120927090Y-58244910D02*
X120754181Y-58072000D01*
G04 #@! TO.N,/13*
X127331000Y-50825000D02*
X128956000Y-49200000D01*
X123118604Y-50825000D02*
X127331000Y-50825000D01*
X118618000Y-55325604D02*
X123118604Y-50825000D01*
X118618000Y-57912000D02*
X118618000Y-55325604D01*
X120193000Y-59487000D02*
X118618000Y-57912000D01*
G04 #@! TO.N,/A5*
X159595000Y-97946701D02*
X158006701Y-99535000D01*
G04 #@! TO.N,/\u002A10*
X135401000Y-48025000D02*
X136576000Y-49200000D01*
X128469299Y-48025000D02*
X135401000Y-48025000D01*
X127781000Y-49496701D02*
X127781000Y-48713299D01*
X126902701Y-50375000D02*
X127781000Y-49496701D01*
X122733000Y-50375000D02*
X126902701Y-50375000D01*
X144421310Y-76020000D02*
X124975009Y-76020000D01*
X127781000Y-48713299D02*
X128469299Y-48025000D01*
X118168000Y-54940000D02*
X122733000Y-50375000D01*
X124975009Y-76020000D02*
X118168000Y-69212991D01*
G04 #@! TO.N,/A1*
X121112604Y-50565000D02*
X117718000Y-53959604D01*
X122511000Y-48903299D02*
X122511000Y-49686701D01*
X123839299Y-47575000D02*
X122511000Y-48903299D01*
X121632701Y-50565000D02*
X121112604Y-50565000D01*
X122511000Y-49686701D02*
X121632701Y-50565000D01*
X136703000Y-40183000D02*
X129311000Y-47575000D01*
X129311000Y-47575000D02*
X123839299Y-47575000D01*
G04 #@! TO.N,/\u002A10*
X118168000Y-69212991D02*
X118168000Y-54940000D01*
G04 #@! TO.N,/A0*
X165059545Y-72984545D02*
X162829455Y-72984545D01*
X167314910Y-75239910D02*
X165059545Y-72984545D01*
X167314910Y-76881090D02*
X167314910Y-75239910D01*
X147108792Y-83882000D02*
X160314000Y-83882000D01*
X145203792Y-85787000D02*
X147108792Y-83882000D01*
X142551812Y-85787000D02*
X145203792Y-85787000D01*
X141576000Y-84811188D02*
X142551812Y-85787000D01*
X141576000Y-84430188D02*
X141576000Y-84811188D01*
X141019812Y-83874000D02*
X141576000Y-84430188D01*
X136213000Y-85773604D02*
X138112604Y-83874000D01*
X136213000Y-94115991D02*
X136213000Y-85773604D01*
X136872009Y-94775000D02*
X136213000Y-94115991D01*
X160314000Y-83882000D02*
X167314910Y-76881090D01*
X148115000Y-94775000D02*
X136872009Y-94775000D01*
X150800000Y-97460000D02*
X148115000Y-94775000D01*
X138112604Y-83874000D02*
X141019812Y-83874000D01*
X162829455Y-72984545D02*
X158016000Y-68171090D01*
G04 #@! TO.N,/0*
X200602000Y-62771000D02*
X201028500Y-62344500D01*
X199610009Y-62771000D02*
X200602000Y-62771000D01*
X199554009Y-62715000D02*
X199610009Y-62771000D01*
X157408442Y-62715000D02*
X199554009Y-62715000D01*
X156988221Y-63135221D02*
X157408442Y-62715000D01*
X201028500Y-62344500D02*
X200588802Y-62784198D01*
X156988221Y-63135221D02*
X153201443Y-66922000D01*
X157461443Y-62662000D02*
X156988221Y-63135221D01*
X201201000Y-62172000D02*
X201028500Y-62344500D01*
G04 #@! TO.N,Net-(D5-A)*
X192715000Y-80828000D02*
X188519000Y-76632000D01*
G04 #@! TO.N,/led_switch*
X187993000Y-75507000D02*
X182809000Y-80691000D01*
X195255000Y-84372000D02*
X193165000Y-82282000D01*
G04 #@! TO.N,/7*
X180161000Y-59003000D02*
X178613000Y-57455000D01*
X199848792Y-59003000D02*
X180161000Y-59003000D01*
X200321792Y-59476000D02*
X199848792Y-59003000D01*
G04 #@! TO.N,/led_switch*
X182809000Y-80691000D02*
X182809000Y-82093000D01*
G04 #@! TO.N,/7*
X202246000Y-60257208D02*
X201464792Y-59476000D01*
G04 #@! TO.N,/led_switch*
X188984991Y-75507000D02*
X187993000Y-75507000D01*
G04 #@! TO.N,/7*
X202246000Y-63288792D02*
X202246000Y-60257208D01*
X199751000Y-65783792D02*
X202246000Y-63288792D01*
G04 #@! TO.N,Net-(D5-A)*
X192715000Y-85522000D02*
X192715000Y-80828000D01*
G04 #@! TO.N,/led_switch*
X195255000Y-85522000D02*
X195255000Y-84372000D01*
G04 #@! TO.N,/7*
X208180175Y-80696000D02*
X199751000Y-72266825D01*
X210434000Y-82418000D02*
X208712000Y-80696000D01*
X208712000Y-80696000D02*
X208180175Y-80696000D01*
G04 #@! TO.N,/led_switch*
X193165000Y-79687009D02*
X188984991Y-75507000D01*
X193165000Y-82282000D02*
X193165000Y-79687009D01*
G04 #@! TO.N,/7*
X210434000Y-88903825D02*
X210434000Y-82418000D01*
X207267825Y-92070000D02*
X210434000Y-88903825D01*
X202687000Y-92070000D02*
X207267825Y-92070000D01*
X199751000Y-72266825D02*
X199751000Y-65783792D01*
X199624000Y-87610000D02*
X199624000Y-89007000D01*
X193615000Y-81601000D02*
X199624000Y-87610000D01*
X193615000Y-79500613D02*
X193615000Y-81601000D01*
X189171387Y-75057000D02*
X193615000Y-79500613D01*
X181584000Y-79706000D02*
X186233000Y-75057000D01*
X178994000Y-85268000D02*
X181584000Y-82678000D01*
X199624000Y-89007000D02*
X202687000Y-92070000D01*
X156616910Y-85268000D02*
X178994000Y-85268000D01*
X186233000Y-75057000D02*
X189171387Y-75057000D01*
X152270220Y-89614690D02*
X156616910Y-85268000D01*
X201464792Y-59476000D02*
X200321792Y-59476000D01*
X181584000Y-82678000D02*
X181584000Y-79706000D01*
G04 #@! TO.N,/\u002A6*
X128466000Y-63914000D02*
X127813000Y-64567000D01*
X130945991Y-63914000D02*
X128466000Y-63914000D01*
X138292000Y-52238821D02*
X138292000Y-56567991D01*
X138292000Y-56567991D02*
X130945991Y-63914000D01*
X139705821Y-50825000D02*
X138292000Y-52238821D01*
X147081396Y-50825000D02*
X139705821Y-50825000D01*
X148260000Y-49646396D02*
X147081396Y-50825000D01*
X148260000Y-49200000D02*
X148260000Y-49646396D01*
G04 #@! TO.N,/\u002A11*
X133878995Y-52090995D02*
X134036000Y-51933991D01*
X131580990Y-54389000D02*
X133878995Y-52090995D01*
X134036000Y-51933991D02*
X134036000Y-49200000D01*
X128780009Y-54389000D02*
X131580990Y-54389000D01*
X120658991Y-63152000D02*
X121318000Y-62492991D01*
X121318000Y-61851009D02*
X128780009Y-54389000D01*
X119068000Y-63811009D02*
X119727009Y-63152000D01*
X121318000Y-62492991D02*
X121318000Y-61851009D01*
X120193000Y-69647000D02*
X119068000Y-68522000D01*
X119068000Y-68522000D02*
X119068000Y-63811009D01*
X119727009Y-63152000D02*
X120658991Y-63152000D01*
G04 #@! TO.N,/\u002A10*
X165975370Y-69594000D02*
X164262000Y-69594000D01*
X176073000Y-79691630D02*
X165975370Y-69594000D01*
X176073000Y-80823000D02*
X176073000Y-79691630D01*
X164262000Y-69594000D02*
X161489520Y-69594000D01*
G04 #@! TO.N,/\u002A9*
X158986000Y-65006000D02*
X157404000Y-65006000D01*
G04 #@! TO.N,/Banana Low*
X187508000Y-69144000D02*
X205029000Y-86665000D01*
X158978298Y-66271090D02*
X161851208Y-69144000D01*
X157228994Y-66271090D02*
X158978298Y-66271090D01*
X156065000Y-67435084D02*
X157228994Y-66271090D01*
X156065000Y-74370060D02*
X156065000Y-67435084D01*
G04 #@! TO.N,/0*
X190360000Y-68694000D02*
X200076000Y-78410000D01*
G04 #@! TO.N,/Banana Low*
X157865470Y-76170530D02*
X156065000Y-74370060D01*
G04 #@! TO.N,/0*
X162037604Y-68694000D02*
X190360000Y-68694000D01*
X159164694Y-65821090D02*
X162037604Y-68694000D01*
X154991000Y-67872688D02*
X157042598Y-65821090D01*
X144112700Y-84125000D02*
X154991000Y-73246700D01*
X143307000Y-84125000D02*
X144112700Y-84125000D01*
X142926000Y-83744000D02*
X143307000Y-84125000D01*
X142926000Y-81210480D02*
X142926000Y-83744000D01*
X151669610Y-66721090D02*
X150820220Y-67570480D01*
X150820220Y-67570480D02*
X150820220Y-73316260D01*
X152870830Y-66721090D02*
X151669610Y-66721090D01*
X150820220Y-73316260D02*
X142926000Y-81210480D01*
X153071740Y-66922000D02*
X152870830Y-66721090D01*
G04 #@! TO.N,/\u002A9*
X157221292Y-65006000D02*
X157404000Y-65006000D01*
G04 #@! TO.N,/Banana Low*
X161851208Y-69144000D02*
X187508000Y-69144000D01*
G04 #@! TO.N,/0*
X153201443Y-66922000D02*
X153071740Y-66922000D01*
X154991000Y-73246700D02*
X154991000Y-67872688D01*
X200602000Y-60521000D02*
X201201000Y-61120000D01*
X174821000Y-60521000D02*
X200602000Y-60521000D01*
X201201000Y-61120000D02*
X201201000Y-62172000D01*
X157042598Y-65821090D02*
X159164694Y-65821090D01*
X163500000Y-49200000D02*
X174821000Y-60521000D01*
G04 #@! TO.N,/led_switch*
X210884000Y-89740588D02*
X210884000Y-80648992D01*
X203418588Y-97206000D02*
X210884000Y-89740588D01*
X202611000Y-97206000D02*
X203418588Y-97206000D01*
X210583504Y-80348496D02*
X209111000Y-78875991D01*
X210884000Y-80648992D02*
X210583504Y-80348496D01*
X210884000Y-80648991D02*
X210583504Y-80348496D01*
G04 #@! TO.N,/12*
X121318000Y-60902000D02*
X121318000Y-58635820D01*
X120193000Y-62027000D02*
X121318000Y-60902000D01*
X121318000Y-58635820D02*
X120927090Y-58244910D01*
X121155500Y-58473319D02*
X120927090Y-58244910D01*
G04 #@! TO.N,/seg10*
X121608000Y-63152000D02*
X120193000Y-64567000D01*
X128591604Y-63152000D02*
X121608000Y-63152000D01*
X129168604Y-62575000D02*
X128591604Y-63152000D01*
X130266000Y-62575000D02*
X129168604Y-62575000D01*
X130480000Y-62789000D02*
X130266000Y-62575000D01*
G04 #@! TO.N,Net-(IC1-D)*
X150927000Y-61266396D02*
X150356198Y-61837198D01*
X150927000Y-60170786D02*
X150927000Y-61266396D01*
X151528786Y-59569000D02*
X150927000Y-60170786D01*
X151988000Y-59569000D02*
X151528786Y-59569000D01*
X152451000Y-59106000D02*
X151988000Y-59569000D01*
X157610610Y-59106000D02*
X152451000Y-59106000D01*
X158473000Y-59968390D02*
X157610610Y-59106000D01*
X158473000Y-61169610D02*
X158473000Y-59968390D01*
X157623610Y-62019000D02*
X158473000Y-61169610D01*
X157338090Y-62019000D02*
X157623610Y-62019000D01*
X153086000Y-66271090D02*
X157338090Y-62019000D01*
X150356198Y-61837198D02*
X148076396Y-64117000D01*
G04 #@! TO.N,Net-(IC1-F)*
X151497952Y-59119000D02*
X151960952Y-58656000D01*
X151342390Y-59119000D02*
X151497952Y-59119000D01*
X150477000Y-59984390D02*
X151342390Y-59119000D01*
X150477000Y-61080000D02*
X150477000Y-59984390D01*
X140767000Y-63297000D02*
X148260000Y-63297000D01*
X158604594Y-58656000D02*
X159563000Y-59614406D01*
G04 #@! TO.N,Net-(IC1-A)*
X155496000Y-59556000D02*
X154483000Y-60569000D01*
X157424214Y-59556000D02*
X155496000Y-59556000D01*
X158023000Y-60154786D02*
X157424214Y-59556000D01*
X158023000Y-60983214D02*
X158023000Y-60154786D01*
G04 #@! TO.N,Net-(IC1-F)*
X148260000Y-63297000D02*
X150477000Y-61080000D01*
G04 #@! TO.N,Net-(IC1-A)*
X157151694Y-61569000D02*
X157437214Y-61569000D01*
X156127694Y-62593000D02*
X157151694Y-61569000D01*
X153661604Y-62593000D02*
X156127694Y-62593000D01*
X147110604Y-69144000D02*
X153661604Y-62593000D01*
X141776370Y-69144000D02*
X147110604Y-69144000D01*
X140640000Y-69139000D02*
X141771370Y-69139000D01*
G04 #@! TO.N,Net-(IC1-F)*
X159563000Y-59614406D02*
X159563000Y-60569000D01*
G04 #@! TO.N,Net-(IC1-A)*
X157437214Y-61569000D02*
X158023000Y-60983214D01*
X141771370Y-69139000D02*
X141776370Y-69144000D01*
G04 #@! TO.N,Net-(IC1-D)*
X151381910Y-66271090D02*
X153086000Y-66271090D01*
G04 #@! TO.N,Net-(IC1-F)*
X151960952Y-58656000D02*
X158604594Y-58656000D01*
G04 #@! TO.N,/1*
X160960000Y-53486000D02*
X160960000Y-49200000D01*
X169120000Y-61646000D02*
X160960000Y-53486000D01*
X200076000Y-61646000D02*
X169120000Y-61646000D01*
G04 #@! TO.N,/\u002A5*
X149625000Y-50375000D02*
X150800000Y-49200000D01*
X148167792Y-50375000D02*
X149625000Y-50375000D01*
X145863000Y-52214786D02*
X146802786Y-51275000D01*
X145863000Y-53043214D02*
X145863000Y-52214786D01*
X147267792Y-51275000D02*
X148167792Y-50375000D01*
X146448786Y-53629000D02*
X145863000Y-53043214D01*
X148403000Y-53629000D02*
X146448786Y-53629000D01*
X149403000Y-52629000D02*
X148403000Y-53629000D01*
X146802786Y-51275000D02*
X147267792Y-51275000D01*
G04 #@! TO.N,Net-(IC1-B)*
X145863000Y-61525396D02*
X145863000Y-58487000D01*
X146297000Y-61959396D02*
X145863000Y-61525396D01*
X145593000Y-58217000D02*
X140640000Y-53264000D01*
X145863000Y-58487000D02*
X145593000Y-58217000D01*
G04 #@! TO.N,Net-(IC1-G)*
X141656000Y-56439000D02*
X140640000Y-56439000D01*
X145339000Y-60122000D02*
X141656000Y-56439000D01*
X145162000Y-61569000D02*
X145339000Y-61392000D01*
X143908786Y-61569000D02*
X145162000Y-61569000D01*
X143252349Y-60912563D02*
X143908786Y-61569000D01*
X143252349Y-60757000D02*
X143252349Y-60912563D01*
X145339000Y-61392000D02*
X145339000Y-60122000D01*
G04 #@! TO.N,Net-(IC1-D)*
X146092792Y-62800000D02*
X146863000Y-62029792D01*
X143866994Y-62800000D02*
X146092792Y-62800000D01*
X142723994Y-61657000D02*
X143866994Y-62800000D01*
X140181009Y-61657000D02*
X142723994Y-61657000D01*
X139515000Y-63254991D02*
X139515000Y-62323009D01*
X141656783Y-64117000D02*
X141453783Y-63914000D01*
X148076396Y-64117000D02*
X141656783Y-64117000D01*
X139515000Y-62323009D02*
X140181009Y-61657000D01*
X140174009Y-63914000D02*
X139515000Y-63254991D01*
G04 #@! TO.N,Net-(IC1-B)*
X145906396Y-62350000D02*
X146297000Y-61959396D01*
X144053390Y-62350000D02*
X145906396Y-62350000D01*
X142910390Y-61207000D02*
X144053390Y-62350000D01*
X139937396Y-61207000D02*
X142910390Y-61207000D01*
X139987613Y-64364000D02*
X139065000Y-63441387D01*
X141267387Y-64364000D02*
X139987613Y-64364000D01*
X141470387Y-64567000D02*
X141267387Y-64364000D01*
X151943000Y-60569000D02*
X151943000Y-61368030D01*
X139065000Y-62079396D02*
X139937396Y-61207000D01*
X151943000Y-61368030D02*
X148744030Y-64567000D01*
X148744030Y-64567000D02*
X141470387Y-64567000D01*
G04 #@! TO.N,Net-(IC1-D)*
X141453783Y-63914000D02*
X140174009Y-63914000D01*
X146863000Y-62029792D02*
X146863000Y-60569000D01*
G04 #@! TO.N,Net-(IC1-B)*
X139065000Y-63441387D02*
X139065000Y-62079396D01*
G04 #@! TO.N,Net-(IC1-G)*
X139751000Y-60757000D02*
X143252349Y-60757000D01*
X138615000Y-61893000D02*
X139751000Y-60757000D01*
X138615000Y-63685000D02*
X138615000Y-61893000D01*
X139744000Y-64814000D02*
X138615000Y-63685000D01*
X141080991Y-64814000D02*
X139744000Y-64814000D01*
X141765000Y-65438000D02*
X141598000Y-65271000D01*
X155449000Y-62143000D02*
X153333000Y-62143000D01*
X153333000Y-62143000D02*
X150038000Y-65438000D01*
X150038000Y-65438000D02*
X141765000Y-65438000D01*
X141598000Y-65271000D02*
X141537991Y-65271000D01*
X157023000Y-60569000D02*
X155449000Y-62143000D01*
X141537991Y-65271000D02*
X141080991Y-64814000D01*
G04 #@! TO.N,Net-(IC1-C)*
X139987613Y-70714000D02*
X139970806Y-70697194D01*
X140640000Y-70714000D02*
X139987613Y-70714000D01*
X141765000Y-73094000D02*
X141765000Y-71839000D01*
X141420000Y-73439000D02*
X141765000Y-73094000D01*
X140114000Y-73439000D02*
X141420000Y-73439000D01*
X137265000Y-70590000D02*
X140114000Y-73439000D01*
X137265000Y-58290000D02*
X137265000Y-70590000D01*
X139515000Y-56040000D02*
X137265000Y-58290000D01*
X139515000Y-52288613D02*
X139515000Y-56040000D01*
X139780307Y-52023307D02*
X139515000Y-52288613D01*
X138165000Y-68891387D02*
X139970806Y-70697194D01*
X141765000Y-71839000D02*
X140640000Y-70714000D01*
X140078614Y-51725000D02*
X139780307Y-52023307D01*
X141890812Y-51725000D02*
X140078614Y-51725000D01*
X139780307Y-52023307D02*
X140078613Y-51725000D01*
X140257604Y-59614000D02*
X138165000Y-61706604D01*
X140640000Y-59614000D02*
X140257604Y-59614000D01*
G04 #@! TO.N,Net-(IC1-E)*
X137715000Y-60634000D02*
X137715000Y-69389000D01*
X139860000Y-58489000D02*
X137715000Y-60634000D01*
X142243000Y-58489000D02*
X139860000Y-58489000D01*
X137715000Y-69389000D02*
X140640000Y-72314000D01*
X144323000Y-60569000D02*
X142243000Y-58489000D01*
G04 #@! TO.N,Net-(IC1-C)*
X138165000Y-61706604D02*
X138165000Y-68891387D01*
G04 #@! TO.N,/seg4*
X130226000Y-59614000D02*
X130480000Y-59614000D01*
X127813000Y-62027000D02*
X130226000Y-59614000D01*
G04 #@! TO.N,/seg5*
X130480000Y-56820000D02*
X130480000Y-56439000D01*
X127813000Y-59487000D02*
X130480000Y-56820000D01*
G04 #@! TO.N,/8*
X147294220Y-88332770D02*
X147294220Y-86741780D01*
X158224000Y-91560000D02*
X150521450Y-91560000D01*
X160198000Y-89586000D02*
X158224000Y-91560000D01*
X176206396Y-86792000D02*
X173412396Y-89586000D01*
X173412396Y-89586000D02*
X160198000Y-89586000D01*
X188519000Y-86792000D02*
X176206396Y-86792000D01*
X150521450Y-91560000D02*
X147294220Y-88332770D01*
G04 #@! TO.N,Net-(IC1-D)*
X148744220Y-69162780D02*
X148744220Y-68908780D01*
X141963000Y-69594000D02*
X148313000Y-69594000D01*
X141293000Y-70264000D02*
X141963000Y-69594000D01*
X140640000Y-65964000D02*
X139058000Y-67546000D01*
X139058000Y-69147991D02*
X140174009Y-70264000D01*
X140174009Y-70264000D02*
X141293000Y-70264000D01*
X139058000Y-67546000D02*
X139058000Y-69147991D01*
X148744220Y-68908780D02*
X151381910Y-66271090D01*
X148313000Y-69594000D02*
X148744220Y-69162780D01*
G04 #@! TO.N,Net-(D4-A)*
X173406000Y-44369000D02*
X177348000Y-48311000D01*
X173406000Y-39421000D02*
X173406000Y-44369000D01*
X177348000Y-48311000D02*
X177348000Y-56185000D01*
G04 #@! TO.N,/seg1*
X127813000Y-69647000D02*
X130480000Y-72314000D01*
G04 #@! TO.N,/seg11*
X121425001Y-68339001D02*
X120193000Y-67107000D01*
X130480000Y-69139000D02*
X129680001Y-68339001D01*
X129680001Y-68339001D02*
X121425001Y-68339001D01*
G04 #@! TO.N,/seg2*
X129337000Y-67107000D02*
X130480000Y-65964000D01*
X127813000Y-67107000D02*
X129337000Y-67107000D01*
G04 #@! TO.N,/seg7*
X123876000Y-53264000D02*
X120193000Y-56947000D01*
X130480000Y-53264000D02*
X123876000Y-53264000D01*
G04 #@! TO.N,Net-(D6-A)*
X176073000Y-70663000D02*
X176073000Y-77897000D01*
X176073000Y-77897000D02*
X180269000Y-82093000D01*
G04 #@! TO.N,/8*
X188519000Y-89718000D02*
X188519000Y-86792000D01*
X184859500Y-93377500D02*
X188519000Y-89718000D01*
G04 #@! TO.N,/\u002A9*
X154541000Y-67686292D02*
X157221292Y-65006000D01*
X154541000Y-71646090D02*
X154541000Y-67686292D01*
X144421310Y-81765780D02*
X154541000Y-71646090D01*
G04 #@! TO.N,/A1*
X138989000Y-40183000D02*
X136703000Y-40183000D01*
G04 #@! TO.N,/A2*
X141197302Y-83307302D02*
X139751000Y-83307302D01*
X139751000Y-83307302D02*
X138679302Y-83307302D01*
X142026000Y-84136000D02*
X141197302Y-83307302D01*
X146795396Y-83432000D02*
X145075396Y-85152000D01*
X138042906Y-83307302D02*
X135763000Y-85587208D01*
X142553208Y-85152000D02*
X142026000Y-84624792D01*
X142026000Y-84624792D02*
X142026000Y-84136000D01*
X151975000Y-98635000D02*
X152165000Y-98445000D01*
X152853299Y-96285000D02*
X154705000Y-96285000D01*
X147275000Y-96285000D02*
X149625000Y-98635000D01*
X149625000Y-98635000D02*
X151975000Y-98635000D01*
X152165000Y-98445000D02*
X152165000Y-96973299D01*
X154705000Y-96285000D02*
X155880000Y-97460000D01*
X139751000Y-77775000D02*
X139751000Y-83307302D01*
X158452910Y-83432000D02*
X146795396Y-83432000D01*
X137052001Y-96285000D02*
X147275000Y-96285000D01*
X145075396Y-85152000D02*
X142553208Y-85152000D01*
X135763000Y-85587208D02*
X135763000Y-94995999D01*
X152165000Y-96973299D02*
X152853299Y-96285000D01*
X165864910Y-76020000D02*
X158452910Y-83432000D01*
X135763000Y-94995999D02*
X137052001Y-96285000D01*
X138679302Y-83307302D02*
X138042906Y-83307302D01*
G04 #@! TO.N,/A3*
X138299000Y-84324000D02*
X140833416Y-84324000D01*
X142365416Y-86237000D02*
X145390188Y-86237000D01*
X141126000Y-84616584D02*
X141126000Y-84997584D01*
X147295188Y-84332000D02*
X163298690Y-84332000D01*
X137338000Y-85285000D02*
X138299000Y-84324000D01*
X145390188Y-86237000D02*
X147295188Y-84332000D01*
X137338000Y-93650000D02*
X137338000Y-85285000D01*
X163298690Y-84332000D02*
X165864910Y-81765780D01*
X141126000Y-84997584D02*
X142365416Y-86237000D01*
X140833416Y-84324000D02*
X141126000Y-84616584D01*
X158420000Y-97460000D02*
X154610000Y-93650000D01*
X154610000Y-93650000D02*
X137338000Y-93650000D01*
G04 #@! TO.N,/8*
X117381000Y-39058000D02*
X142563000Y-39058000D01*
X143307000Y-49200000D02*
X148006000Y-44501000D01*
X184859500Y-93377500D02*
X169244201Y-93377500D01*
X112192000Y-44247000D02*
X117381000Y-39058000D01*
X124557750Y-100435000D02*
X112192000Y-88069250D01*
X142563000Y-39058000D02*
X148006000Y-44501000D01*
X169244201Y-93377500D02*
X162362351Y-100259351D01*
X162362351Y-100259351D02*
X162186701Y-100435000D01*
X162186702Y-100435000D02*
X124557750Y-100435000D01*
X141656000Y-49200000D02*
X143307000Y-49200000D01*
X112192000Y-88069250D02*
X112192000Y-44247000D01*
X162362351Y-100259351D02*
X162186702Y-100435000D01*
G04 #@! TO.N,/7*
X147472000Y-47575000D02*
X150546000Y-44501000D01*
X145720000Y-49200000D02*
X147345000Y-47575000D01*
X147345000Y-47575000D02*
X147472000Y-47575000D01*
G04 #@! TO.N,/\u002A10*
X159315470Y-76879530D02*
X156029750Y-80165250D01*
X142476000Y-77965310D02*
X144421310Y-76020000D01*
X157964550Y-70458758D02*
X157964550Y-74219000D01*
X157415390Y-66721090D02*
X156515000Y-67621480D01*
X157964550Y-74219000D02*
X159315470Y-75569920D01*
X156029750Y-80165250D02*
X148790750Y-80165250D01*
X140267500Y-45508500D02*
X141918500Y-45508500D01*
X156515000Y-69009208D02*
X157964550Y-70458758D01*
X136576000Y-49200000D02*
X140267500Y-45508500D01*
X148790750Y-80165250D02*
X144254000Y-84702000D01*
X161489520Y-69594000D02*
X158616610Y-66721090D01*
X159315470Y-75569920D02*
X159315470Y-76879530D01*
X142739604Y-84702000D02*
X142476000Y-84438396D01*
X158616610Y-66721090D02*
X157415390Y-66721090D01*
X141918500Y-45508500D02*
X142926000Y-44501000D01*
X142476000Y-84438396D02*
X142476000Y-77965310D01*
X156515000Y-67621480D02*
X156515000Y-69009208D01*
X144254000Y-84702000D02*
X142739604Y-84702000D01*
G04 #@! TO.N,/\u002A9*
X144350821Y-44501000D02*
X145466000Y-44501000D01*
X139651821Y-49200000D02*
X144350821Y-44501000D01*
X139116000Y-49200000D02*
X139651821Y-49200000D01*
G04 #@! TO.N,/4*
X153340000Y-49200000D02*
X154515000Y-48025000D01*
X159785000Y-52407000D02*
X159563000Y-52629000D01*
X159023000Y-48025000D02*
X159785000Y-48787000D01*
X159785000Y-48787000D02*
X159785000Y-52407000D01*
X154515000Y-48025000D02*
X159023000Y-48025000D01*
G04 #@! TO.N,/2*
X148667000Y-50825000D02*
X146863000Y-52629000D01*
X158420000Y-49200000D02*
X156795000Y-50825000D01*
X156795000Y-50825000D02*
X148667000Y-50825000D01*
G04 #@! TO.N,/\u002A3*
X162135000Y-48713299D02*
X160996701Y-47575000D01*
X154705000Y-50375000D02*
X155880000Y-49200000D01*
X162135000Y-52597000D02*
X162135000Y-48713299D01*
X152165000Y-48713299D02*
X152165000Y-49686701D01*
X152853299Y-50375000D02*
X154705000Y-50375000D01*
X153303299Y-47575000D02*
X152165000Y-48713299D01*
X162103000Y-52629000D02*
X162135000Y-52597000D01*
X152165000Y-49686701D02*
X152853299Y-50375000D01*
X160996701Y-47575000D02*
X153303299Y-47575000D01*
G04 #@! TO.N,/A4*
X121336000Y-49200000D02*
X124257000Y-46279000D01*
X158435000Y-99985000D02*
X160960000Y-97460000D01*
X113170001Y-47205999D02*
X113170001Y-88410855D01*
X113208000Y-47168000D02*
X113170001Y-47205999D01*
X113589000Y-46533000D02*
X113208000Y-46914000D01*
X118669000Y-46533000D02*
X113589000Y-46533000D01*
X124257000Y-46279000D02*
X124257000Y-44374000D01*
X121336000Y-49200000D02*
X118669000Y-46533000D01*
X113208000Y-46914000D02*
X113208000Y-47168000D01*
X124744146Y-99985000D02*
X158435000Y-99985000D01*
X113170001Y-88410855D02*
X124744146Y-99985000D01*
X126543000Y-44374000D02*
X124257000Y-44374000D01*
G04 #@! TO.N,/seg5*
X127940000Y-59106000D02*
X127559000Y-59106000D01*
G04 #@! TO.N,Net-(IC1-C)*
X149403000Y-59237188D02*
X149403000Y-60569000D01*
X141890812Y-51725000D02*
X149403000Y-59237188D01*
G04 #@! TO.N,/A5*
X158050000Y-92010000D02*
X145985000Y-92010000D01*
X145985000Y-92010000D02*
X139624000Y-85649000D01*
X163500000Y-97460000D02*
X158050000Y-92010000D01*
G04 #@! TO.N,Net-(D1-A)*
X210236000Y-61646000D02*
X211125000Y-60757000D01*
X211125000Y-49073000D02*
X204648000Y-42596000D01*
X211125000Y-60757000D02*
X211125000Y-49073000D01*
G04 #@! TO.N,/led_switch*
X210434000Y-55629825D02*
X207211825Y-58852000D01*
X179888000Y-56185000D02*
X182256000Y-58553000D01*
X207211825Y-58852000D02*
X207061000Y-58852000D01*
X198934396Y-57328000D02*
X195504000Y-57328000D01*
X210561000Y-72266825D02*
X210561000Y-63561991D01*
X202108000Y-43993000D02*
X202108000Y-42596000D01*
X205410000Y-44247000D02*
X202362000Y-44247000D01*
X209111000Y-73716825D02*
X210561000Y-72266825D01*
X210434000Y-49271000D02*
X205410000Y-44247000D01*
X202611000Y-97206000D02*
X201150500Y-95745500D01*
X182256000Y-58553000D02*
X193515604Y-58553000D01*
X209111000Y-78875991D02*
X209111000Y-73716825D01*
X202362000Y-44247000D02*
X202108000Y-43993000D01*
X193515604Y-58553000D02*
X194740604Y-57328000D01*
X195255000Y-85522000D02*
X195255000Y-95677000D01*
X200458396Y-58852000D02*
X198934396Y-57328000D01*
X195255000Y-95677000D02*
X195186500Y-95745500D01*
X195186500Y-95745500D02*
X192710000Y-98222000D01*
X207061000Y-60061991D02*
X207061000Y-58852000D01*
X194740604Y-57328000D02*
X195504000Y-57328000D01*
X207061000Y-58852000D02*
X200458396Y-58852000D01*
X210561000Y-63561991D02*
X207061000Y-60061991D01*
X201150500Y-95745500D02*
X195186500Y-95745500D01*
X210434000Y-49271000D02*
X210434000Y-55629825D01*
G04 #@! TO.N,Net-(D3-A)*
X192964000Y-57328000D02*
X190043000Y-54407000D01*
X190043000Y-54407000D02*
X189027000Y-54407000D01*
G04 #@! TD*
M02*
