M48
; DRILL file {KiCad 8.0.5} date 2024-11-20T16:27:20+0100
; FORMAT={-:-/ absolute / inch / decimal}
; #@! TF.CreationDate,2024-11-20T16:27:20+01:00
; #@! TF.GenerationSoftware,Kicad,Pcbnew,8.0.5
; #@! TF.FileFunction,Plated,1,2,PTH
FMAT,2
INCH
; #@! TA.AperFunction,Plated,PTH,ComponentDrill
T1C0.0287
; #@! TA.AperFunction,Plated,PTH,ComponentDrill
T2C0.0315
; #@! TA.AperFunction,Plated,PTH,ComponentDrill
T3C0.0331
; #@! TA.AperFunction,Plated,PTH,ComponentDrill
T4C0.0335
; #@! TA.AperFunction,Plated,PTH,ComponentDrill
T5C0.0354
; #@! TA.AperFunction,Plated,PTH,ComponentDrill
T6C0.0394
; #@! TA.AperFunction,Plated,PTH,ComponentDrill
T7C0.0512
; #@! TA.AperFunction,Plated,PTH,ComponentDrill
T8C0.0591
; #@! TA.AperFunction,Plated,PTH,ComponentDrill
T9C0.2402
%
G90
G05
T1
X5.682Y-2.072
X5.682Y-2.3846
X5.782Y-2.072
X5.782Y-2.3846
X5.882Y-2.072
X5.882Y-2.3846
X5.982Y-2.072
X5.982Y-2.3846
X6.082Y-2.072
X6.082Y-2.3846
X6.182Y-2.072
X6.182Y-2.3846
X6.282Y-2.072
X6.282Y-2.3846
X6.382Y-2.072
X6.382Y-2.3846
T2
X4.492Y-1.747
X4.892Y-1.747
X4.982Y-1.582
X4.982Y-1.747
X5.102Y-3.042
X5.127Y-3.687
X5.137Y-2.097
X5.137Y-2.222
X5.137Y-2.347
X5.137Y-2.472
X5.137Y-2.597
X5.137Y-2.722
X5.137Y-2.847
X5.382Y-1.582
X5.382Y-1.747
X5.472Y-1.582
X5.502Y-3.042
X5.527Y-3.687
X5.537Y-2.097
X5.537Y-2.222
X5.537Y-2.347
X5.537Y-2.472
X5.537Y-2.597
X5.537Y-2.722
X5.537Y-2.847
X5.872Y-1.582
X6.662Y-3.867
X6.762Y-3.867
X6.827Y-1.547
X6.827Y-1.947
X6.862Y-3.867
X6.932Y-2.782
X6.932Y-3.182
X7.422Y-3.017
X7.422Y-3.417
X7.442Y-1.742
X7.442Y-2.142
X7.587Y-3.872
X7.687Y-3.872
X7.787Y-3.872
X7.877Y-2.427
X7.877Y-3.087
X8.277Y-2.427
X8.277Y-3.087
T3
X5.527Y-1.752
X5.627Y-1.752
X5.727Y-1.752
X5.827Y-1.752
X5.927Y-1.752
X6.027Y-1.752
T4
X4.732Y-2.242
X4.732Y-2.342
X4.732Y-2.442
X4.732Y-2.542
X4.732Y-2.642
X4.732Y-2.742
X5.032Y-2.242
X5.032Y-2.342
X5.032Y-2.442
X5.032Y-2.542
X5.032Y-2.642
X5.032Y-2.742
T5
X6.9822Y-2.212
X7.0822Y-2.212
X7.0972Y-3.232
X7.1972Y-3.232
X7.5872Y-3.367
X7.597Y-2.257
X7.6872Y-3.367
X7.697Y-2.257
X7.957Y-1.677
X7.9768Y-3.827
X8.057Y-1.677
X8.0768Y-3.827
T6
X4.677Y-1.937
X4.777Y-1.937
X4.877Y-1.937
X4.977Y-1.937
X5.037Y-3.837
X5.077Y-1.937
X5.137Y-3.837
X5.177Y-1.937
X5.1978Y-3.372
X5.237Y-3.837
X5.277Y-1.937
X5.337Y-3.837
X5.377Y-1.937
X5.437Y-3.837
X5.477Y-1.937
X5.497Y-3.372
X5.537Y-3.837
X5.577Y-1.937
X5.637Y-3.837
X5.737Y-1.937
X5.737Y-3.837
X5.837Y-1.937
X5.937Y-1.937
X5.937Y-3.837
X6.037Y-1.937
X6.037Y-3.837
X6.137Y-1.937
X6.137Y-3.837
X6.237Y-1.937
X6.237Y-3.837
X6.337Y-1.937
X6.337Y-3.837
X6.437Y-1.937
X6.437Y-3.837
T7
X7.1419Y-3.8649
X7.3419Y-3.8649
T8
X5.6859Y-2.9929
X5.6859Y-3.2191
X5.799Y-2.797
X5.799Y-3.415
X5.9949Y-2.6839
X5.9949Y-3.5281
X6.0008Y-3.2132
X6.2152Y-2.9988
X6.2211Y-2.6839
X6.2211Y-3.5281
X6.417Y-2.797
X6.417Y-3.415
X6.5301Y-2.9929
X6.5301Y-3.2191
X6.9886Y-3.5605
X7.4886Y-3.5605
T9
X8.072Y-2.102
X8.072Y-3.382
X8.077Y-2.757
T6
G00X4.722Y-3.5049
M15
G01X4.722Y-3.5837
M16
G05
G00X4.8007Y-3.7294
M15
G01X4.8795Y-3.7294
M16
G05
G00X4.9582Y-3.5049
M15
G01X4.9582Y-3.5837
M16
G05
M30
